<?xml version="1.0" encoding="UTF-8"?><svg id="a" xmlns="http://www.w3.org/2000/svg" viewBox="0 0 512 322.05"><defs><style>.b{fill:#1d1d1b;}</style></defs><path class="b" d="M281.95,117.1c-7.2,.76-14.49,.76-21.75,.76l-154.42-.12v-42.75c0-4.21-1.13-10.22,0-14.25,.68-2.44,1.9-1.7,4.59-1.7,2.49,0,4.98,0,7.46,0h157.91l81.54-.02c-7.24,16.18-18.69,30.45-32.92,41.02-10.27,7.63-22.07,13.37-34.62,15.89-2.59,.52-5.2,.9-7.82,1.18Z"/><path class="b" d="M174.28,161.09c-38.28,0-76.56,0-114.84,0h-6.02v58.75c35.1,.03,70.21,.05,105.31,.08,7.25,0,14.55,0,21.75-.76,2.62-.28,5.23-.66,7.82-1.18,12.55-2.51,24.34-8.25,34.62-15.89,14.23-10.57,25.68-24.84,32.92-41.02,0,0-74.74,0-81.54,0Z"/><path class="b" d="M459.82,102.15l-106.91-.08c-7.25,0-14.55,0-21.75,.76-2.62,.28-5.23,.66-7.82,1.18-12.55,2.51-24.34,8.25-34.62,15.89-14.23,10.57-25.68,24.84-32.92,41.02,0,0,74.74,0,81.54,0,38.28,0,76.56,0,114.84,0,2.54,0,5.08,0,7.62,0v-58.74Z"/><path class="b" d="M230.05,204.96c7.2-.76,14.49-.76,21.75-.76l154.42,.12v42.75c0,4.21,1.13,10.22,0,14.25-.68,2.44-1.9,1.7-4.59,1.7-2.49,0-4.98,0-7.46,0H236.25l-81.54,.02c7.24-16.18,18.69-30.45,32.92-41.02,10.27-7.63,22.07-13.37,34.62-15.89,2.59-.52,5.2-.9,7.82-1.18Z"/><path class="b" d="M73.17,263.22H0v58.79c19.2,.01,38.41,.03,57.61,.04,7.25,0,14.55,0,21.75-.76,2.62-.28,5.23-.66,7.82-1.18,12.55-2.51,24.34-8.25,34.62-15.89,14.23-10.57,25.68-24.84,32.92-41.02,0,0-74.74,0-81.54,0Z"/><path class="b" d="M432.64,.76c-2.62,.28-5.23,.66-7.82,1.18-12.55,2.51-24.34,8.25-34.62,15.89-14.23,10.57-25.68,24.84-32.92,41.02,0,0,74.74,0,81.54,0h73.17V.04c-19.2-.01-38.41-.03-57.61-.04-7.25,0-14.55,0-21.75,.76Z"/></svg>